<?xml version="1.0" encoding="UTF-8" standalone="no"?>
<!-- Uploaded to: SVG Repo, www.svgrepo.com, Generator: SVG Repo Mixer Tools -->

<svg
   width="60"
   height="60"
   viewBox="0 0 1.8 1.8"
   fill="none"
   version="1.1"
   id="svg1211"
   sodipodi:docname="edit_icon.svg"
   inkscape:version="1.2.2 (732a01da63, 2022-12-09)"
   xmlns:inkscape="http://www.inkscape.org/namespaces/inkscape"
   xmlns:sodipodi="http://sodipodi.sourceforge.net/DTD/sodipodi-0.dtd"
   xmlns="http://www.w3.org/2000/svg"
   xmlns:svg="http://www.w3.org/2000/svg">
  <defs
     id="defs1215" />
  <sodipodi:namedview
     id="namedview1213"
     pagecolor="#ffffff"
     bordercolor="#000000"
     borderopacity="0.25"
     inkscape:showpageshadow="2"
     inkscape:pageopacity="0.0"
     inkscape:pagecheckerboard="0"
     inkscape:deskcolor="#d1d1d1"
     showgrid="false"
     inkscape:zoom="10.974297"
     inkscape:cx="50.481592"
     inkscape:cy="24.05621"
     inkscape:window-width="1920"
     inkscape:window-height="974"
     inkscape:window-x="-11"
     inkscape:window-y="-11"
     inkscape:window-maximized="1"
     inkscape:current-layer="svg1211" />
  <path
     d="M 0.89677179,0.1063047 H 0.29888055 c -0.11006873,0 -0.19929709,0.0891118 -0.19929709,0.19903696 V 1.4995664 c 0,0.1099181 0.08922828,0.199037 0.19929709,0.199037 H 1.4946631 c 0.1100715,0 0.199297,-0.089119 0.199297,-0.199037 V 0.90245552 M 1.5359375,0.54559917 1.6441358,0.43754698 c 0.077826,-0.0777289 0.077826,-0.20375214 0,-0.28148006 -0.077835,-0.07772891 -0.2040203,-0.07772891 -0.2818558,1e-6 L 1.2540916,0.26411911 M 1.5359375,0.54559917 0.93442897,1.1463255 c -0.0278219,0.027786 -0.0632569,0.046734 -0.10183083,0.054437 l -0.29314409,0.058547 0.0586283,-0.29275352 c 0.007716,-0.0385336 0.0266809,-0.0739223 0.0545017,-0.1017079 L 1.2540916,0.26411911 M 1.5359375,0.54559917 1.2540916,0.26411911"
     stroke="#000000"
     stroke-width="0.199167"
     stroke-linecap="round"
     stroke-linejoin="round"
     id="path1209"
     style="fill:none;fill-opacity:1;stroke:#ffffff;stroke-opacity:1" />
</svg>
